<svg width="103" height="24" viewBox="0 0 103 24" fill="none" xmlns="http://www.w3.org/2000/svg">
<path d="M34.5794 19C32.8611 19 31.2757 18.1825 30.2427 16.7441C29.9972 16.4026 30.0688 15.9163 30.4063 15.6576C30.7438 15.3989 31.2246 15.4816 31.4803 15.8231C32.227 16.8476 33.352 17.4374 34.5794 17.4374C36.717 17.4374 38.4658 15.6783 38.4658 13.5052C38.4658 11.3321 36.7272 9.57293 34.5794 9.57293C33.127 9.57293 31.7564 10.3594 31.0098 11.6115L28.2994 16.175C27.2766 17.9031 25.405 18.9691 23.4208 18.9691C20.4342 18.9691 18 16.5061 18 13.4845C18 10.4628 20.4342 8 23.4208 8C25.139 8 26.7243 8.81749 27.7573 10.2559C28.0028 10.5974 27.9312 11.0838 27.5937 11.3425C27.2459 11.5909 26.7755 11.5183 26.5198 11.1769C25.7732 10.1524 24.6481 9.56257 23.4208 9.56257C21.2831 9.56257 19.5342 11.3217 19.5342 13.4948C19.5342 15.6679 21.2729 17.4272 23.4208 17.4272C24.8731 17.4272 26.2436 16.6406 26.9902 15.3885L29.7006 10.8251C30.7234 9.09694 32.5952 8.03108 34.5794 8.03108C37.5659 8.03108 40 10.4939 40 13.5155C40 16.5372 37.5659 19 34.5794 19Z" fill="white" stroke="white" stroke-width="0.6"/>
<path d="M15 5V19H12.26V9.92L8.32005 16.42H8.00005L4.06005 9.94V19H1.30005V5H4.14005L8.16005 11.62L12.16 5H15ZM50.0686 5H52.6487V19H50.0686V17.82C49.3087 18.7933 48.2287 19.28 46.8287 19.28C45.482 19.28 44.3286 18.7733 43.3686 17.76C42.4219 16.7333 41.9487 15.48 41.9487 14C41.9487 12.52 42.4219 11.2733 43.3686 10.26C44.3286 9.23333 45.482 8.72 46.8287 8.72C48.2287 8.72 49.3087 9.20667 50.0686 10.18V5ZM45.3087 16.04C45.8419 16.56 46.5087 16.82 47.3087 16.82C48.1087 16.82 48.7687 16.56 49.2887 16.04C49.8087 15.5067 50.0686 14.8267 50.0686 14C50.0686 13.1733 49.8087 12.5 49.2887 11.98C48.7687 11.4467 48.1087 11.18 47.3087 11.18C46.5087 11.18 45.8419 11.4467 45.3087 11.98C44.7887 12.5 44.5286 13.1733 44.5286 14C44.5286 14.8267 44.7887 15.5067 45.3087 16.04ZM62.6681 9H65.1882V18.52C65.1882 20.0667 64.6749 21.2467 63.6482 22.06C62.6348 22.8733 61.4081 23.28 59.9682 23.28C58.8881 23.28 57.9348 23.0733 57.1082 22.66C56.2948 22.2467 55.6681 21.64 55.2281 20.84L57.4282 19.58C57.9348 20.5133 58.8081 20.98 60.0481 20.98C60.8615 20.98 61.5016 20.7667 61.9682 20.34C62.4349 19.9133 62.6681 19.3067 62.6681 18.52V17.44C61.9081 18.4533 60.8416 18.96 59.4682 18.96C58.0549 18.96 56.8681 18.4667 55.9081 17.48C54.9615 16.48 54.4881 15.2667 54.4881 13.84C54.4881 12.4267 54.9682 11.22 55.9282 10.22C56.8881 9.22 58.0681 8.72 59.4682 8.72C60.8416 8.72 61.9081 9.22667 62.6681 10.24V9ZM57.8481 15.82C58.3815 16.3267 59.0548 16.58 59.8681 16.58C60.6815 16.58 61.3481 16.3267 61.8681 15.82C62.4016 15.3 62.6681 14.64 62.6681 13.84C62.6681 13.0533 62.4016 12.4067 61.8681 11.9C61.3481 11.38 60.6815 11.12 59.8681 11.12C59.0548 11.12 58.3815 11.38 57.8481 11.9C57.3281 12.4067 57.0681 13.0533 57.0681 13.84C57.0681 14.64 57.3281 15.3 57.8481 15.82ZM70.1077 10.72C70.3477 10.08 70.741 9.6 71.2877 9.28C71.8477 8.96 72.4677 8.8 73.1477 8.8V11.68C72.361 11.5867 71.6544 11.7467 71.0277 12.16C70.4143 12.5733 70.1077 13.26 70.1077 14.22V19H67.5277V9H70.1077V10.72ZM81.8855 9H84.4655V19H81.8855V17.82C81.1121 18.7933 80.0256 19.28 78.6255 19.28C77.2922 19.28 76.1455 18.7733 75.1855 17.76C74.2388 16.7333 73.7655 15.48 73.7655 14C73.7655 12.52 74.2388 11.2733 75.1855 10.26C76.1455 9.23333 77.2922 8.72 78.6255 8.72C80.0256 8.72 81.1121 9.20667 81.8855 10.18V9ZM77.1255 16.04C77.6455 16.56 78.3055 16.82 79.1055 16.82C79.9055 16.82 80.5656 16.56 81.0855 16.04C81.6189 15.5067 81.8855 14.8267 81.8855 14C81.8855 13.1733 81.6189 12.5 81.0855 11.98C80.5656 11.4467 79.9055 11.18 79.1055 11.18C78.3055 11.18 77.6455 11.4467 77.1255 11.98C76.6056 12.5 76.3455 13.1733 76.3455 14C76.3455 14.8267 76.6056 15.5067 77.1255 16.04ZM97.865 8.72C99.0117 8.72 99.925 9.09333 100.605 9.84C101.298 10.5867 101.645 11.5867 101.645 12.84V19H99.065V13.02C99.065 12.42 98.9183 11.9533 98.625 11.62C98.3317 11.2867 97.9184 11.12 97.385 11.12C96.7983 11.12 96.3383 11.3133 96.005 11.7C95.685 12.0867 95.525 12.6467 95.525 13.38V19H92.945V13.02C92.945 12.42 92.7983 11.9533 92.505 11.62C92.2117 11.2867 91.7983 11.12 91.265 11.12C90.6917 11.12 90.2318 11.3133 89.885 11.7C89.5518 12.0867 89.385 12.6467 89.385 13.38V19H86.805V9H89.385V10.06C89.985 9.16667 90.9117 8.72 92.165 8.72C93.3917 8.72 94.2983 9.2 94.885 10.16C95.5518 9.2 96.545 8.72 97.865 8.72Z" fill="#5263FC"/>
</svg>
