<svg width="125" height="34" viewBox="0 0 125 34" fill="none" xmlns="http://www.w3.org/2000/svg">
<path d="M31.0139 23.1573L31.0128 23.1557C30.665 22.6901 30.0041 22.5705 29.535 22.9309C29.0733 23.2857 28.9748 23.9516 29.3116 24.4213C30.5569 26.1596 32.471 27.15 34.5463 27.15C38.152 27.15 41.0869 24.1703 41.0869 20.5183C41.0869 16.8665 38.152 13.8867 34.5463 13.8867C32.1535 13.8867 29.8979 15.1748 28.6653 17.2625L25.4701 22.6552C24.6165 24.0902 23.0493 24.9912 21.3908 24.9912C18.9434 24.9912 16.9587 22.9812 16.9587 20.4939C16.9587 18.0067 18.9552 15.9967 21.3908 15.9967C22.7874 15.9967 24.0697 16.6688 24.9231 17.8427L24.9243 17.8443C25.2747 18.3133 25.9215 18.4132 26.3978 18.0722L26.4019 18.0692C26.8636 17.7144 26.9621 17.0483 26.6253 16.5786C25.3799 14.8404 23.466 13.85 21.3908 13.85C17.785 13.85 14.85 16.8297 14.85 20.4817C14.85 24.1335 17.785 27.1135 21.3908 27.1135C23.7836 27.1135 26.039 25.8253 27.2716 23.7376L30.4668 18.3448C31.3204 16.9099 32.8877 16.0089 34.5463 16.0089C36.9936 16.0089 38.9782 18.0188 38.9782 20.5061C38.9782 22.9933 36.9818 25.0033 34.5463 25.0033C33.1496 25.0033 31.8675 24.3312 31.0139 23.1573Z" fill="#e5383b" stroke="#e5383b" stroke-width="0.3"/>
<path d="M13.041 11.664H5.481V16.146H12.825V19.71H5.481V27H1.755V8.1H13.041V11.664ZM53.827 8.1H57.31V27H53.827V25.407C52.801 26.721 51.343 27.378 49.453 27.378C47.635 27.378 46.078 26.694 44.782 25.326C43.504 23.94 42.865 22.248 42.865 20.25C42.865 18.252 43.504 16.569 44.782 15.201C46.078 13.815 47.635 13.122 49.453 13.122C51.343 13.122 52.801 13.779 53.827 15.093V8.1ZM47.401 23.004C48.121 23.706 49.021 24.057 50.101 24.057C51.181 24.057 52.072 23.706 52.774 23.004C53.476 22.284 53.827 21.366 53.827 20.25C53.827 19.134 53.476 18.225 52.774 17.523C52.072 16.803 51.181 16.443 50.101 16.443C49.021 16.443 48.121 16.803 47.401 17.523C46.699 18.225 46.348 19.134 46.348 20.25C46.348 21.366 46.699 22.284 47.401 23.004ZM70.8363 13.5H74.2383V26.352C74.2383 28.44 73.5453 30.033 72.1593 31.131C70.7913 32.229 69.1353 32.778 67.1913 32.778C65.7333 32.778 64.4463 32.499 63.3303 31.941C62.2323 31.383 61.3863 30.564 60.7923 29.484L63.7623 27.783C64.4463 29.043 65.6253 29.673 67.2993 29.673C68.3973 29.673 69.2613 29.385 69.8913 28.809C70.5213 28.233 70.8363 27.414 70.8363 26.352V24.894C69.8103 26.262 68.3703 26.946 66.5163 26.946C64.6083 26.946 63.0063 26.28 61.7103 24.948C60.4323 23.598 59.7933 21.96 59.7933 20.034C59.7933 18.126 60.4413 16.497 61.7373 15.147C63.0333 13.797 64.6263 13.122 66.5163 13.122C68.3703 13.122 69.8103 13.806 70.8363 15.174V13.5ZM64.3293 22.707C65.0493 23.391 65.9583 23.733 67.0563 23.733C68.1543 23.733 69.0543 23.391 69.7563 22.707C70.4763 22.005 70.8363 21.114 70.8363 20.034C70.8363 18.972 70.4763 18.099 69.7563 17.415C69.0543 16.713 68.1543 16.362 67.0563 16.362C65.9583 16.362 65.0493 16.713 64.3293 17.415C63.6273 18.099 63.2763 18.972 63.2763 20.034C63.2763 21.114 63.6273 22.005 64.3293 22.707ZM80.8797 15.822C81.2037 14.958 81.7347 14.31 82.4727 13.878C83.2287 13.446 84.0657 13.23 84.9837 13.23V17.118C83.9217 16.992 82.9677 17.208 82.1217 17.766C81.2937 18.324 80.8797 19.251 80.8797 20.547V27H77.3967V13.5H80.8797V15.822ZM96.7798 13.5H100.263V27H96.7798V25.407C95.7358 26.721 94.2688 27.378 92.3788 27.378C90.5788 27.378 89.0308 26.694 87.7348 25.326C86.4568 23.94 85.8178 22.248 85.8178 20.25C85.8178 18.252 86.4568 16.569 87.7348 15.201C89.0308 13.815 90.5788 13.122 92.3788 13.122C94.2688 13.122 95.7358 13.779 96.7798 15.093V13.5ZM90.3538 23.004C91.0558 23.706 91.9468 24.057 93.0268 24.057C94.1068 24.057 94.9978 23.706 95.6998 23.004C96.4198 22.284 96.7798 21.366 96.7798 20.25C96.7798 19.134 96.4198 18.225 95.6998 17.523C94.9978 16.803 94.1068 16.443 93.0268 16.443C91.9468 16.443 91.0558 16.803 90.3538 17.523C89.6518 18.225 89.3008 19.134 89.3008 20.25C89.3008 21.366 89.6518 22.284 90.3538 23.004ZM118.352 13.122C119.9 13.122 121.133 13.626 122.051 14.634C122.987 15.642 123.455 16.992 123.455 18.684V27H119.972V18.927C119.972 18.117 119.774 17.487 119.378 17.037C118.982 16.587 118.424 16.362 117.704 16.362C116.912 16.362 116.291 16.623 115.841 17.145C115.409 17.667 115.193 18.423 115.193 19.413V27H111.71V18.927C111.71 18.117 111.512 17.487 111.116 17.037C110.72 16.587 110.162 16.362 109.442 16.362C108.668 16.362 108.047 16.623 107.579 17.145C107.129 17.667 106.904 18.423 106.904 19.413V27H103.421V13.5H106.904V14.931C107.714 13.725 108.965 13.122 110.657 13.122C112.313 13.122 113.537 13.77 114.329 15.066C115.229 13.77 116.57 13.122 118.352 13.122Z" fill="black"/>
</svg>
