<svg width="156" height="78" viewBox="0 0 156 78" fill="none" xmlns="http://www.w3.org/2000/svg">
<defs>
<linearGradient id="paint0_linear_0_13" x1="-21.5261" y1="-17.5212" x2="180.719" y2="94.114" gradientUnits="userSpaceOnUse">
<stop stop-color="#FFFFFF"/>
<stop offset="1" stop-color="#FFFFFF"/>
</linearGradient>
</defs>
<path d="M117.563 77.0934C105.379 77.0934 94.1366 71.364 86.8116 61.2831C85.071 58.8898 85.5787 55.4811 87.972 53.668C90.3653 51.8549 93.7747 52.4351 95.5878 54.8284C100.882 62.0083 108.86 66.1422 117.563 66.1422C132.72 66.1422 145.121 53.813 145.121 38.5829C145.121 23.353 132.793 11.0239 117.563 11.0239C107.264 11.0239 97.5452 16.5355 92.251 25.3109L73.032 57.2942C65.7795 69.4058 52.5079 76.8766 38.4381 76.8766C17.261 76.8766 0 59.615 0 38.4378C0 17.2608 17.261 0 38.4381 0C50.6222 0 61.8635 5.72936 69.1882 15.8103C70.9288 18.2036 70.4211 21.6126 68.0278 23.4257C65.5619 25.1666 62.2262 24.6582 60.4131 22.2651C55.1188 15.0852 47.1411 10.9513 38.4381 10.9513C23.2805 10.9513 10.8787 23.2804 10.8787 38.5104C10.8787 53.7405 23.208 66.0704 38.4381 66.0704C48.7366 66.0704 58.4548 60.5578 63.7488 51.7824L82.9678 19.7995C90.2203 7.68789 103.493 0.217793 117.563 0.217793C138.74 0.217793 156 17.4786 156 38.6554C156 59.8326 138.74 77.0934 117.563 77.0934Z" fill="url(#paint0_linear_0_13)"/>
</svg>
