<svg width="24" height="24" viewBox="0 0 24 24" fill="none" xmlns="http://www.w3.org/2000/svg">
<path d="M9 22H15C20 22 22 20 22 15V9C22 4 20 2 15 2H9C4 2 2 4 2 9V15C2 20 4 22 9 22Z" stroke="white" stroke-width="1.5" stroke-linecap="round" stroke-linejoin="round"/>
<path d="M2 13H5.76C6.13208 13.0002 6.49674 13.1042 6.81296 13.3003C7.12917 13.4964 7.38442 13.7768 7.55 14.11L8.44 15.9C9 17 10 17 10.24 17H13.77C14.1421 16.9998 14.5067 16.8958 14.823 16.6997C15.1392 16.5036 15.3944 16.2232 15.56 15.89L16.45 14.1C16.6156 13.7668 16.8708 13.4864 17.187 13.2903C17.5033 13.0942 17.8679 12.9902 18.24 12.99H21.98M10.34 7H13.67M9.5 10H14.5" stroke="white" stroke-width="1.5" stroke-linecap="round" stroke-linejoin="round"/>
</svg>
