<svg width="137" height="32" viewBox="0 0 137 32" fill="none" xmlns="http://www.w3.org/2000/svg">
<path d="M45.994 25.3334C43.7085 25.3334 41.5997 24.2434 40.2258 22.3255C39.8992 21.8702 39.9944 21.2218 40.4434 20.8768C40.8923 20.5319 41.5318 20.6422 41.8719 21.0975C42.8651 22.4635 44.3614 23.2499 45.994 23.2499C48.8372 23.2499 51.1633 20.9044 51.1633 18.007C51.1633 15.1095 48.8508 12.7639 45.994 12.7639C44.0621 12.7639 42.2391 13.8126 41.2461 15.482L37.641 21.5667C36.2806 23.8708 33.7911 25.2922 31.152 25.2922C27.1795 25.2922 23.9418 22.0082 23.9418 17.9794C23.9418 13.9504 27.1795 10.6667 31.152 10.6667C33.4373 10.6667 35.5459 11.7567 36.9199 13.6746C37.2465 14.1299 37.1512 14.7784 36.7023 15.1234C36.2397 15.4546 35.614 15.3578 35.2739 14.9026C34.2809 13.5366 32.7844 12.7501 31.152 12.7501C28.3086 12.7501 25.9824 15.0956 25.9824 17.9931C25.9824 20.8906 28.295 23.2363 31.152 23.2363C33.0837 23.2363 34.9066 22.1875 35.8996 20.518L39.5047 14.4335C40.8651 12.1293 43.3548 10.7081 45.994 10.7081C49.9663 10.7081 53.2039 13.9919 53.2039 18.0207C53.2039 22.0496 49.9663 25.3334 45.994 25.3334Z" fill="#5263FC"/>
<path d="M19.9515 6.66669V25.3334H16.307V13.2267L11.0664 21.8934H10.6408L5.40019 13.2534V25.3334H1.72913V6.66669H5.5066L10.8536 15.4934L16.174 6.66669H19.9515ZM66.5961 6.66669H70.0277V25.3334H66.5961V23.76C65.5852 25.0578 64.1487 25.7067 62.2866 25.7067C60.4953 25.7067 58.9613 25.0311 57.6844 23.68C56.4252 22.3111 55.7957 20.64 55.7957 18.6667C55.7957 16.6934 56.4252 15.0311 57.6844 13.68C58.9613 12.3111 60.4953 11.6267 62.2866 11.6267C64.1487 11.6267 65.5852 12.2756 66.5961 13.5734V6.66669ZM60.2648 21.3867C60.9742 22.08 61.861 22.4267 62.925 22.4267C63.9891 22.4267 64.867 22.08 65.5586 21.3867C66.2503 20.6756 66.5961 19.769 66.5961 18.6667C66.5961 17.5644 66.2503 16.6667 65.5586 15.9734C64.867 15.2623 63.9891 14.9067 62.925 14.9067C61.861 14.9067 60.9742 15.2623 60.2648 15.9734C59.5732 16.6667 59.2274 17.5644 59.2274 18.6667C59.2274 19.769 59.5732 20.6756 60.2648 21.3867ZM83.3547 12H86.7065V24.6934C86.7065 26.7556 86.0238 28.329 84.6582 29.4134C83.3104 30.4978 81.6787 31.04 79.7634 31.04C78.3269 31.04 77.0589 30.7644 75.9593 30.2134C74.8775 29.6623 74.044 28.8534 73.4587 27.7867L76.3849 26.1067C77.0589 27.3511 78.2205 27.9734 79.8698 27.9734C80.9517 27.9734 81.803 27.689 82.4236 27.12C83.0443 26.5511 83.3547 25.7423 83.3547 24.6934V23.2534C82.3438 24.6044 80.9251 25.28 79.0984 25.28C77.2185 25.28 75.6401 24.6223 74.3632 23.3067C73.1041 21.9734 72.4745 20.3556 72.4745 18.4534C72.4745 16.569 73.1129 14.96 74.3898 13.6267C75.6667 12.2934 77.2362 11.6267 79.0984 11.6267C80.9251 11.6267 82.3438 12.3022 83.3547 13.6534V12ZM76.9436 21.0934C77.6531 21.769 78.5486 22.1067 79.6304 22.1067C80.7123 22.1067 81.5989 21.769 82.2906 21.0934C83.0001 20.4 83.3547 19.52 83.3547 18.4534C83.3547 17.4044 83.0001 16.5423 82.2906 15.8667C81.5989 15.1734 80.7123 14.8267 79.6304 14.8267C78.5486 14.8267 77.6531 15.1734 76.9436 15.8667C76.2519 16.5423 75.9061 17.4044 75.9061 18.4534C75.9061 19.52 76.2519 20.4 76.9436 21.0934ZM93.25 14.2934C93.5693 13.44 94.0924 12.8 94.8195 12.3734C95.5644 11.9467 96.3891 11.7334 97.2935 11.7334V15.5734C96.2471 15.449 95.3072 15.6623 94.4737 16.2134C93.6579 16.7644 93.25 17.68 93.25 18.96V25.3334H89.8184V12H93.25V14.2934ZM108.916 12H112.347V25.3334H108.916V23.76C107.887 25.0578 106.442 25.7067 104.58 25.7067C102.806 25.7067 101.281 25.0311 100.004 23.68C98.7448 22.3111 98.1153 20.64 98.1153 18.6667C98.1153 16.6934 98.7448 15.0311 100.004 13.68C101.281 12.3111 102.806 11.6267 104.58 11.6267C106.442 11.6267 107.887 12.2756 108.916 13.5734V12ZM102.584 21.3867C103.276 22.08 104.154 22.4267 105.218 22.4267C106.282 22.4267 107.16 22.08 107.852 21.3867C108.561 20.6756 108.916 19.769 108.916 18.6667C108.916 17.5644 108.561 16.6667 107.852 15.9734C107.16 15.2623 106.282 14.9067 105.218 14.9067C104.154 14.9067 103.276 15.2623 102.584 15.9734C101.893 16.6667 101.547 17.5644 101.547 18.6667C101.547 19.769 101.893 20.6756 102.584 21.3867ZM130.17 11.6267C131.695 11.6267 132.91 12.1245 133.814 13.12C134.736 14.1156 135.198 15.449 135.198 17.12V25.3334H131.766V17.36C131.766 16.56 131.571 15.9378 131.181 15.4934C130.791 15.049 130.241 14.8267 129.532 14.8267C128.751 14.8267 128.139 15.0844 127.696 15.6C127.27 16.1156 127.058 16.8623 127.058 17.84V25.3334H123.626V17.36C123.626 16.56 123.431 15.9378 123.041 15.4934C122.651 15.049 122.101 14.8267 121.391 14.8267C120.629 14.8267 120.017 15.0844 119.556 15.6C119.112 16.1156 118.891 16.8623 118.891 17.84V25.3334H115.459V12H118.891V13.4134C119.689 12.2222 120.921 11.6267 122.588 11.6267C124.22 11.6267 125.426 12.2667 126.206 13.5467C127.093 12.2667 128.414 11.6267 130.17 11.6267Z" fill="white"/>
</svg>
