<svg width="26" height="26" viewBox="0 0 26 26" fill="none" xmlns="http://www.w3.org/2000/svg">
<path d="M17.5392 2.16663H8.46085C4.51752 2.16663 2.16669 4.51746 2.16669 8.46079V17.5283C2.16669 21.4825 4.51752 23.8333 8.46085 23.8333H17.5284C21.4717 23.8333 23.8225 21.4825 23.8225 17.5391V8.46079C23.8334 4.51746 21.4825 2.16663 17.5392 2.16663ZM17.3334 13.8125H13.8125V17.3333C13.8125 17.7775 13.4442 18.1458 13 18.1458C12.5559 18.1458 12.1875 17.7775 12.1875 17.3333V13.8125H8.66669C8.22252 13.8125 7.85419 13.4441 7.85419 13C7.85419 12.5558 8.22252 12.1875 8.66669 12.1875H12.1875V8.66663C12.1875 8.22246 12.5559 7.85413 13 7.85413C13.4442 7.85413 13.8125 8.22246 13.8125 8.66663V12.1875H17.3334C17.7775 12.1875 18.1459 12.5558 18.1459 13C18.1459 13.4441 17.7775 13.8125 17.3334 13.8125Z" fill="#E5383B"/>
<path d="M9.75002 23.8333H16.25C21.6667 23.8333 23.8334 21.6666 23.8334 16.25V9.74996C23.8334 4.33329 21.6667 2.16663 16.25 2.16663H9.75002C4.33335 2.16663 2.16669 4.33329 2.16669 9.74996V16.25C2.16669 21.6666 4.33335 23.8333 9.75002 23.8333Z" stroke="#E5383B" stroke-width="1.5" stroke-linecap="round" stroke-linejoin="round"/>
</svg>
