<svg width="24" height="24" viewBox="0 0 24 24" fill="none" xmlns="http://www.w3.org/2000/svg">
<path d="M22.9994 15.6669V20.2501C22.9994 20.9794 22.7097 21.6789 22.194 22.1946C21.6783 22.7103 20.9788 23 20.2495 23H15.6663C14.3803 22.9987 13.1173 22.6592 12.004 22.0157C10.8906 21.3721 9.9661 20.4471 9.32312 19.3334C10.0141 19.3285 10.7028 19.2523 11.3782 19.1061C11.8926 19.7493 12.5451 20.2684 13.2874 20.6251C14.0297 20.9818 14.8427 21.1669 15.6663 21.1667H20.2495C20.4926 21.1667 20.7258 21.0701 20.8977 20.8982C21.0696 20.7263 21.1661 20.4932 21.1661 20.2501V15.6669C21.1659 14.843 20.9803 14.0298 20.6229 13.2875C20.2656 12.5452 19.7457 11.8928 19.1019 11.3788C19.2493 10.7035 19.3267 10.0148 19.3329 9.32369C20.4465 9.96667 21.3715 10.8912 22.0151 12.0045C22.6586 13.1179 22.9981 14.3809 22.9994 15.6669ZM17.4785 9.84709C17.5642 8.66612 17.3947 7.48054 16.9815 6.3709C16.5683 5.26126 15.9211 4.25357 15.0838 3.41631C14.2466 2.57904 13.2389 1.93182 12.1292 1.51862C11.0196 1.10542 9.83402 0.935923 8.65305 1.02165C6.56028 1.26065 4.62709 2.25653 3.21752 3.82176C1.80795 5.38699 1.01927 7.41356 1 9.51985L1 14.1397C1 16.4607 2.38138 17.5001 3.74993 17.5001H8.97479C11.082 17.482 13.1098 16.6939 14.6761 15.2842C16.2425 13.8745 17.2392 11.9407 17.4785 9.84709V9.84709ZM13.7872 4.71389C14.4379 5.36608 14.941 6.15045 15.2623 7.01392C15.5837 7.87739 15.7158 8.7998 15.6498 9.71876C15.4541 11.3538 14.6676 12.8608 13.4382 13.9563C12.2089 15.0518 10.6214 15.6602 8.97479 15.6669H3.74993C2.89928 15.6669 2.83329 14.4981 2.83329 14.1397V9.51985C2.84093 7.8739 3.44986 6.2875 4.5455 5.05917C5.64113 3.83084 7.14792 3.0453 8.7823 2.85035C8.93446 2.83936 9.08662 2.83386 9.23879 2.83386C10.0833 2.83307 10.9196 2.9987 11.7 3.32129C12.4805 3.64387 13.1897 4.11709 13.7872 4.71389Z" fill="white"/>
</svg>
