<svg width="24" height="24" viewBox="0 0 24 24" fill="none" xmlns="http://www.w3.org/2000/svg">
<path d="M9 22H15C20 22 22 20 22 15V9C22 4 20 2 15 2H9C4 2 2 4 2 9V15C2 20 4 22 9 22Z" stroke="black" stroke-width="1.5" stroke-linecap="round" stroke-linejoin="round"/>
<path d="M2.67001 18.95L7.60001 15.64C8.39001 15.11 9.53001 15.17 10.24 15.78L10.57 16.07C11.35 16.74 12.61 16.74 13.39 16.07L17.55 12.5C18.33 11.83 19.59 11.83 20.37 12.5L22 13.9M9.00001 10C9.53045 10 10.0392 9.78929 10.4142 9.41421C10.7893 9.03914 11 8.53043 11 8C11 7.46957 10.7893 6.96086 10.4142 6.58579C10.0392 6.21071 9.53045 6 9.00001 6C8.46958 6 7.96087 6.21071 7.5858 6.58579C7.21073 6.96086 7.00001 7.46957 7.00001 8C7.00001 8.53043 7.21073 9.03914 7.5858 9.41421C7.96087 9.78929 8.46958 10 9.00001 10Z" stroke="black" stroke-width="1.5" stroke-linecap="round" stroke-linejoin="round"/>
</svg>
