<svg width="26" height="26" viewBox="0 0 26 26" fill="none" xmlns="http://www.w3.org/2000/svg">
<path fill-rule="evenodd" clip-rule="evenodd" d="M9.92033 22.5023V19.18C9.92031 18.335 10.6092 17.6484 11.4628 17.6427H14.5894C15.447 17.6427 16.1422 18.331 16.1422 19.18V19.18V22.5126C16.142 23.2301 16.7205 23.8165 17.445 23.8333H19.5294C21.6072 23.8333 23.2917 22.1657 23.2917 20.1086V20.1086V10.6576C23.2806 9.84836 22.8968 9.08842 22.2495 8.59408L15.1209 2.90904C13.872 1.91916 12.0967 1.91916 10.8479 2.90904L3.75054 8.6044C3.10079 9.09673 2.71635 9.85793 2.70834 10.6679V20.1086C2.70834 22.1657 4.39279 23.8333 6.47066 23.8333H8.55505C9.29756 23.8333 9.89948 23.2374 9.89948 22.5023V22.5023" fill="#E5383B"/>
<path d="M9.92033 22.5023V19.18C9.92031 18.335 10.6092 17.6484 11.4628 17.6427H14.5894C15.447 17.6427 16.1422 18.331 16.1422 19.18V19.18V22.5126C16.142 23.2301 16.7205 23.8165 17.445 23.8333H19.5294C21.6072 23.8333 23.2917 22.1657 23.2917 20.1086V20.1086V10.6576C23.2806 9.84836 22.8968 9.08842 22.2495 8.59408L15.1209 2.90904C13.872 1.91916 12.0967 1.91916 10.8479 2.90904L3.75054 8.6044C3.10079 9.09673 2.71635 9.85793 2.70834 10.6679V20.1086C2.70834 22.1657 4.39279 23.8333 6.47066 23.8333H8.55505C9.29756 23.8333 9.89948 23.2374 9.89948 22.5023V22.5023" stroke="#E5383B" stroke-width="1.5" stroke-linecap="round" stroke-linejoin="round"/>
</svg>
