<svg width="26" height="26" viewBox="0 0 26 26" fill="none" xmlns="http://www.w3.org/2000/svg">
<path fill-rule="evenodd" clip-rule="evenodd" d="M13.2543 4.37559C15.0158 3.26192 17.3558 2.95426 19.3773 3.60209C23.7745 5.02017 25.1395 9.81392 23.9186 13.6283C22.0347 19.6192 13.9888 24.0879 13.6475 24.2753C13.5262 24.3425 13.3918 24.3761 13.2575 24.3761C13.1232 24.3761 12.9899 24.3436 12.8686 24.2775C12.5295 24.0923 4.54208 19.6896 2.59533 13.6294L2.59425 13.6283C1.37225 9.81284 2.73292 5.01801 7.12584 3.60209C9.1885 2.93476 11.4364 3.22834 13.2543 4.37559ZM7.62417 5.14909C4.06975 6.29526 3.17708 10.1183 4.14233 13.1333C5.66117 17.8588 11.6618 21.6797 13.2564 22.6254C14.8565 21.6699 20.9004 17.8068 22.3705 13.1376C23.3358 10.1194 22.4398 6.29634 18.88 5.14909C17.1553 4.59551 15.1436 4.93242 13.7548 6.00709C13.4644 6.23026 13.0614 6.23459 12.7689 6.01359C11.2978 4.90751 9.37592 4.58359 7.62417 5.14909Z" fill="black"/>
</svg>
