<svg width="26" height="26" viewBox="0 0 26 26" fill="none" xmlns="http://www.w3.org/2000/svg">
<path d="M19.4154 3.48305L19.4156 3.48312C23.8987 4.92887 25.2723 9.80848 24.0377 13.6661C23.0845 16.6969 20.5787 19.3309 18.2841 21.2245C15.986 23.121 13.8817 24.2893 13.7077 24.3849C13.5676 24.4624 13.4125 24.5011 13.2575 24.5011C13.1029 24.5011 12.949 24.4636 12.8088 24.3873L12.8087 24.3872C12.6357 24.2927 10.5465 23.1414 8.25533 21.253C5.9745 19.3731 3.47661 16.7491 2.48564 13.6965L2.48444 13.6953L2.47521 13.6665C1.23942 9.8079 2.60845 4.92688 7.08736 3.48316L19.4154 3.48305ZM19.4154 3.48305C17.3841 2.83206 15.039 3.12893 13.2542 4.22826M19.4154 3.48305L13.2542 4.22826M13.2542 4.22826C11.4172 3.096 9.16053 2.81247 7.08749 3.48312L13.2542 4.22826Z" fill="#E5383B" stroke="#E5383B" stroke-width="0.25"/>
</svg>
