<svg width="24" height="24" viewBox="0 0 24 24" fill="none" xmlns="http://www.w3.org/2000/svg">
<path d="M11.7716 10.4001C10.8228 10.4001 9.8739 10.2327 8.97158 9.90705C8.60879 9.77682 8.42274 9.37682 8.55297 9.01403C8.69251 8.65124 9.09251 8.46519 9.4553 8.59542C10.953 9.13496 12.5995 9.13496 14.0972 8.59542C14.46 8.46519 14.86 8.65124 14.9902 9.01403C15.1205 9.37682 14.9344 9.77682 14.5716 9.90705C13.6693 10.2327 12.7205 10.4001 11.7716 10.4001Z" fill="black"/>
<path d="M18.3488 22C17.8744 22 17.3535 21.8605 16.8512 21.5721L12.3116 19.0512C12.0419 18.9023 11.5116 18.9023 11.2419 19.0512L6.70233 21.5721C5.7814 22.0837 4.84186 22.1395 4.12558 21.7116C3.4093 21.293 3 20.4465 3 19.3954V6.28837C3 3.92558 4.92558 2 7.28837 2H16.2651C18.6279 2 20.5535 3.92558 20.5535 6.28837V19.3954C20.5535 20.4465 20.1442 21.293 19.4279 21.7116C19.1023 21.907 18.7302 22 18.3488 22ZM11.7721 17.5442C12.2093 17.5442 12.6372 17.6372 12.9814 17.8326L17.5209 20.3535C17.9953 20.6233 18.4325 20.6791 18.7116 20.5116C18.9907 20.3442 19.1488 19.9442 19.1488 19.3954V6.28837C19.1488 4.69767 17.8465 3.39535 16.2558 3.39535H7.28837C5.69767 3.39535 4.39535 4.69767 4.39535 6.28837V19.3954C4.39535 19.9442 4.55349 20.3535 4.83256 20.5116C5.11163 20.6698 5.53953 20.6233 6.02326 20.3535L10.5628 17.8326C10.907 17.6372 11.3349 17.5442 11.7721 17.5442Z" fill="black"/>
</svg>
