<svg width="24" height="24" viewBox="0 0 24 24" fill="none" xmlns="http://www.w3.org/2000/svg">
<path fill-rule="evenodd" clip-rule="evenodd" d="M15.0456 2C18.2998 2 20.1667 3.61078 20.1667 6.41694V20.3624C20.1667 20.9476 19.8655 21.4743 19.3589 21.7688C18.8543 22.0643 18.2461 22.07 17.7357 21.7822L12.508 18.8289C12.2037 18.657 11.8317 18.6564 11.5269 18.8274L6.24721 21.7889C5.99778 21.929 5.72436 22 5.44998 22C5.16696 22 4.88395 21.9242 4.62684 21.7726C4.12125 21.4781 3.82001 20.9514 3.82001 20.3672V6.24138C3.82001 3.54555 5.6879 2 8.94496 2H15.0456ZM15.0456 3.43906H8.94496C6.49953 3.43906 5.25906 4.38116 5.25906 6.24138V20.3672C5.25906 20.4573 5.31087 20.5063 5.35404 20.5312C5.39721 20.5581 5.46533 20.5773 5.544 20.5331L11.6667 17.0986C11.8854 16.9767 12.1531 16.9758 12.3728 17.0995L18.4427 20.5283C18.5224 20.5744 18.5905 20.5533 18.6336 20.5274C18.6768 20.5015 18.7277 20.4525 18.7277 20.3624L18.7273 6.30762C18.7201 5.48191 18.5603 3.43906 15.0456 3.43906Z" fill="white"/>
</svg>
