<svg width="24" height="24" viewBox="0 0 24 24" fill="none" xmlns="http://www.w3.org/2000/svg">
<path d="M12 9V2M12 2L10 4M12 2L14 4M1.98001 13H6.39001C6.77001 13 7.11001 13.21 7.28001 13.55L8.45001 15.89C8.61559 16.2232 8.87084 16.5036 9.18706 16.6997C9.50328 16.8958 9.86793 16.9998 10.24 17H13.77C14.1421 16.9998 14.5067 16.8958 14.823 16.6997C15.1392 16.5036 15.3944 16.2232 15.56 15.89L16.73 13.55C16.8131 13.3851 16.9403 13.2464 17.0973 13.1493C17.2544 13.0522 17.4353 13.0006 17.62 13H21.98" stroke="white" stroke-width="1.5" stroke-linecap="round" stroke-linejoin="round"/>
<path d="M7 5.13C3.46 5.65 2 7.73 2 12V15C2 20 4 22 9 22H15C20 22 22 20 22 15V12C22 7.73 20.54 5.65 17 5.13" stroke="white" stroke-width="1.5" stroke-linecap="round" stroke-linejoin="round"/>
</svg>
